<?xml version="1.0" standalone="no"?>
<!DOCTYPE svg PUBLIC "-//W3C//DTD SVG 20010904//EN"
 "http://www.w3.org/TR/2001/REC-SVG-20010904/DTD/svg10.dtd">
<svg version="1.0" xmlns="http://www.w3.org/2000/svg"
 width="500.000000pt" height="500.000000pt" viewBox="0 0 500.000000 500.000000"
 preserveAspectRatio="xMidYMid meet">
<metadata>
Created by potrace 1.14, written by Peter Selinger 2001-2017
</metadata>
<g transform="translate(0.000000,500.000000) scale(0.100000,-0.100000)"
fill="#000000" stroke="none">
<path d="M1154 4468 l-283 -283 4 -1650 c2 -907 4 -1668 5 -1690 0 -43 -4 -38
451 -502 l90 -91 547 3 c301 2 780 4 1066 5 l519 1 105 102 c58 56 186 181
286 279 l181 176 2 1679 2 1678 -278 282 -278 282 -1068 6 -1068 6 -283 -283z"/>
</g>
</svg>
